<svg xmlns="http://www.w3.org/2000/svg" viewBox="0 0 64 64"><title>Artboard-11</title><g id="Umbrella"><path d="M58,6H57V4a4,4,0,0,0-8,0V6H43V4a4,4,0,0,0-8,0V6H29V4a4,4,0,0,0-8,0V6H15V4A4,4,0,0,0,7,4V6H6a6.006,6.006,0,0,0-6,6V50a6.006,6.006,0,0,0,6,6H28a1,1,0,0,0,0-2H6a4,4,0,0,1-4-4V20H62V50a4,4,0,0,1-4,4H36a1,1,0,0,0,0,2H58a6.006,6.006,0,0,0,6-6V12A6.006,6.006,0,0,0,58,6ZM51,4a2,2,0,0,1,4,0v6a2,2,0,0,1-4,0ZM37,4a2,2,0,0,1,4,0v6a2,2,0,0,1-4,0ZM23,4a2,2,0,0,1,4,0v6a2,2,0,0,1-4,0ZM9,4a2,2,0,0,1,4,0v6a2,2,0,0,1-4,0ZM2,18V12A4,4,0,0,1,6,8H7v2a4,4,0,0,0,8,0V8h6v2a4,4,0,0,0,8,0V8h6v2a4,4,0,0,0,8,0V8h6v2a4,4,0,0,0,8,0V8h1a4,4,0,0,1,4,4v6Z" style="fill:#202023"/><path d="M44,50a1,1,0,0,0,1-1,13,13,0,0,0-26,0,1,1,0,0,0,1,1H31V60a2,2,0,0,1-4,0V59a1,1,0,0,0-2,0v1a4,4,0,0,0,8,0V50ZM32,38A11.015,11.015,0,0,1,42.955,48H21.045A11.015,11.015,0,0,1,32,38Z" style="fill:#202023"/><path d="M31,33a1,1,0,0,0,2,0V31a1,1,0,0,0-2,0Z" style="fill:#202023"/><path d="M36,30a1,1,0,0,0,1-1V24a1,1,0,0,0-2,0v5A1,1,0,0,0,36,30Z" style="fill:#202023"/><path d="M35,34a1,1,0,0,0,2,0V32a1,1,0,0,0-2,0Z" style="fill:#202023"/><path d="M32,29a1,1,0,0,0,1-1V24a1,1,0,0,0-2,0v4A1,1,0,0,0,32,29Z" style="fill:#202023"/><path d="M43,40a1,1,0,0,0,2,0V38a1,1,0,0,0-2,0Z" style="fill:#202023"/><path d="M40,32a1,1,0,0,0,1-1V24a1,1,0,0,0-2,0v7A1,1,0,0,0,40,32Z" style="fill:#202023"/><path d="M39,36a1,1,0,0,0,2,0V34a1,1,0,0,0-2,0Z" style="fill:#202023"/><path d="M44,36a1,1,0,0,0,1-1V24a1,1,0,0,0-2,0V35A1,1,0,0,0,44,36Z" style="fill:#202023"/><path d="M28,30a1,1,0,0,0,1-1V24a1,1,0,0,0-2,0v5A1,1,0,0,0,28,30Z" style="fill:#202023"/><path d="M27,34a1,1,0,0,0,2,0V32a1,1,0,0,0-2,0Z" style="fill:#202023"/><path d="M19,40a1,1,0,0,0,2,0V38a1,1,0,0,0-2,0Z" style="fill:#202023"/><path d="M24,32a1,1,0,0,0,1-1V24a1,1,0,0,0-2,0v7A1,1,0,0,0,24,32Z" style="fill:#202023"/><path d="M23,36a1,1,0,0,0,2,0V34a1,1,0,0,0-2,0Z" style="fill:#202023"/><path d="M20,36a1,1,0,0,0,1-1V24a1,1,0,0,0-2,0V35A1,1,0,0,0,20,36Z" style="fill:#202023"/></g></svg>