<svg xmlns="http://www.w3.org/2000/svg" xmlns:xlink="http://www.w3.org/1999/xlink" version="1.1" width="256" height="256" viewBox="0 0 256 256" xml:space="preserve">

<defs>
</defs>
<g style="stroke: none; stroke-width: 0; stroke-dasharray: none; stroke-linecap: butt; stroke-linejoin: miter; stroke-miterlimit: 10; fill: none; fill-rule: nonzero; opacity: 1;" transform="translate(1.4065934065934016 1.4065934065934016) scale(2.81 2.81)" >
	<path d="M 45 90 c -7.682 0 -13.931 -6.25 -13.931 -13.932 c 0 -4.967 2.624 -9.516 6.889 -12.016 V 7.042 C 37.958 3.159 41.117 0 45 0 c 3.884 0 7.043 3.159 7.043 7.042 v 57.01 c 4.265 2.5 6.889 7.049 6.889 12.016 C 58.932 83.75 52.682 90 45 90 z M 45 2 c -2.78 0 -5.042 2.262 -5.042 5.042 v 58.199 l -0.532 0.282 c -3.921 2.077 -6.357 6.118 -6.357 10.545 C 33.069 82.647 38.421 88 45 88 c 6.579 0 11.932 -5.353 11.932 -11.932 c 0 -4.427 -2.436 -8.468 -6.356 -10.545 l -0.532 -0.282 V 7.042 C 50.043 4.262 47.78 2 45 2 z" style="stroke: none; stroke-width: 1; stroke-dasharray: none; stroke-linecap: butt; stroke-linejoin: miter; stroke-miterlimit: 10; fill: rgb(0,0,0); fill-rule: nonzero; opacity: 1;" transform=" matrix(1 0 0 1 0 0) " stroke-linecap="round" />
	<path d="M 46 68.082 V 42.573 c 0 -0.552 -0.448 -1 -1 -1 s -1 0.448 -1 1 v 25.508 c -3.971 0.495 -7.056 3.884 -7.056 7.987 c 0 4.442 3.614 8.056 8.056 8.056 c 4.442 0 8.056 -3.613 8.056 -8.056 C 53.056 71.965 49.971 68.576 46 68.082 z" style="stroke: none; stroke-width: 1; stroke-dasharray: none; stroke-linecap: butt; stroke-linejoin: miter; stroke-miterlimit: 10; fill: rgb(0,0,0); fill-rule: nonzero; opacity: 1;" transform=" matrix(1 0 0 1 0 0) " stroke-linecap="round" />
	<path d="M 45 32.697 h -6.042 c -0.552 0 -1 -0.448 -1 -1 s 0.448 -1 1 -1 H 45 c 0.552 0 1 0.448 1 1 S 45.552 32.697 45 32.697 z" style="stroke: none; stroke-width: 1; stroke-dasharray: none; stroke-linecap: butt; stroke-linejoin: miter; stroke-miterlimit: 10; fill: rgb(0,0,0); fill-rule: nonzero; opacity: 1;" transform=" matrix(1 0 0 1 0 0) " stroke-linecap="round" />
	<path d="M 41.979 23.289 h -3.021 c -0.552 0 -1 -0.448 -1 -1 s 0.448 -1 1 -1 h 3.021 c 0.552 0 1 0.448 1 1 S 42.531 23.289 41.979 23.289 z" style="stroke: none; stroke-width: 1; stroke-dasharray: none; stroke-linecap: butt; stroke-linejoin: miter; stroke-miterlimit: 10; fill: rgb(0,0,0); fill-rule: nonzero; opacity: 1;" transform=" matrix(1 0 0 1 0 0) " stroke-linecap="round" />
	<path d="M 45 13.882 h -6.042 c -0.552 0 -1 -0.448 -1 -1 s 0.448 -1 1 -1 H 45 c 0.552 0 1 0.448 1 1 S 45.552 13.882 45 13.882 z" style="stroke: none; stroke-width: 1; stroke-dasharray: none; stroke-linecap: butt; stroke-linejoin: miter; stroke-miterlimit: 10; fill: rgb(0,0,0); fill-rule: nonzero; opacity: 1;" transform=" matrix(1 0 0 1 0 0) " stroke-linecap="round" />
</g>
</svg>